<svg width="19" height="16" viewBox="0 0 19 16" fill="none" xmlns="http://www.w3.org/2000/svg">
<path d="M5.75 13.25V8.75C5.75 7.92157 5.07843 7.25 4.25 7.25H2.75C1.92157 7.25 1.25 7.92157 1.25 8.75V13.25C1.25 14.0784 1.92157 14.75 2.75 14.75H4.25C5.07843 14.75 5.75 14.0784 5.75 13.25ZM5.75 13.25V5.75C5.75 4.92157 6.42157 4.25 7.25 4.25H8.75C9.57843 4.25 10.25 4.92157 10.25 5.75V13.25M5.75 13.25C5.75 14.0784 6.42157 14.75 7.25 14.75H8.75C9.57843 14.75 10.25 14.0784 10.25 13.25M10.25 13.25V2.75C10.25 1.92157 10.9216 1.25 11.75 1.25H13.25C14.0784 1.25 14.75 1.92157 14.75 2.75V13.25C14.75 14.0784 14.0784 14.75 13.25 14.75H11.75C10.9216 14.75 10.25 14.0784 10.25 13.25Z" stroke="#3F3F46" stroke-width="1.2" stroke-linecap="round" stroke-linejoin="round"/>
<circle cx="14.6143" cy="10.8081" r="2.30806" fill="white"/>
<path d="M18.2835 14.4772L16.2911 12.4848M16.9552 10.8245C16.9552 12.1083 15.9145 13.149 14.6308 13.149C13.347 13.149 12.3063 12.1083 12.3063 10.8245C12.3063 9.54071 13.347 8.5 14.6308 8.5C15.9145 8.5 16.9552 9.54071 16.9552 10.8245Z" stroke="#3F3F46" stroke-width="0.664137" stroke-linecap="round" stroke-linejoin="round"/>
</svg>
