<svg width="14" height="14" viewBox="0 0 14 14" fill="none" xmlns="http://www.w3.org/2000/svg">
<path d="M11.13 10.773C10.948 10.213 10.423 9.8 9.8 9.8H9.1V7.7C9.1 7.51435 9.02625 7.3363 8.89497 7.20503C8.7637 7.07375 8.58565 7 8.4 7H4.2V5.6H5.6C5.78565 5.6 5.9637 5.52625 6.09497 5.39497C6.22625 5.2637 6.3 5.08565 6.3 4.9V3.5H7.7C8.0713 3.5 8.4274 3.3525 8.68995 3.08995C8.9525 2.8274 9.1 2.4713 9.1 2.1V1.813C9.93753 2.15066 10.6808 2.68623 11.2661 3.37388C11.8514 4.06154 12.2614 4.88078 12.4609 5.7615C12.6605 6.64221 12.6436 7.55816 12.4118 8.43094C12.18 9.30372 11.7402 10.1073 11.13 10.773ZM6.3 12.551C3.535 12.208 1.4 9.856 1.4 7C1.4 6.566 1.456 6.146 1.547 5.747L4.9 9.1V9.8C4.9 10.1713 5.0475 10.5274 5.31005 10.7899C5.5726 11.0525 5.9287 11.2 6.3 11.2M7 0C6.08075 0 5.17049 0.18106 4.32122 0.532843C3.47194 0.884626 2.70026 1.40024 2.05025 2.05025C0.737498 3.36301 0 5.14348 0 7C0 8.85651 0.737498 10.637 2.05025 11.9497C2.70026 12.5998 3.47194 13.1154 4.32122 13.4672C5.17049 13.8189 6.08075 14 7 14C8.85651 14 10.637 13.2625 11.9497 11.9497C13.2625 10.637 14 8.85651 14 7C14 6.08075 13.8189 5.17049 13.4672 4.32122C13.1154 3.47194 12.5998 2.70026 11.9497 2.05025C11.2997 1.40024 10.5281 0.884626 9.67878 0.532843C8.8295 0.18106 7.91925 0 7 0Z" fill="#3F3F46"/>
</svg>
