<svg width="16" height="16" viewBox="0 0 16 16" fill="none" xmlns="http://www.w3.org/2000/svg">
<path d="M8.07544 15.6042C4.01483 15.6042 0.723267 12.3126 0.723267 8.25204C0.723267 4.19144 4.01483 0.899872 8.07544 0.899872C12.136 0.899872 15.4276 4.19144 15.4276 8.25204C15.4276 12.3126 12.136 15.6042 8.07544 15.6042ZM8.07544 14.1338C9.63537 14.1338 11.1314 13.5141 12.2345 12.4111C13.3375 11.308 13.9572 9.81198 13.9572 8.25204C13.9572 6.69211 13.3375 5.19607 12.2345 4.09303C11.1314 2.98999 9.63537 2.37031 8.07544 2.37031C6.5155 2.37031 5.01946 2.98999 3.91642 4.09303C2.81338 5.19607 2.1937 6.69211 2.1937 8.25204C2.1937 9.81198 2.81338 11.308 3.91642 12.4111C5.01946 13.5141 6.5155 14.1338 8.07544 14.1338ZM6.64176 7.51683H10.2811V8.98726H6.64176C6.70545 9.29997 6.84947 9.59071 7.05963 9.83086C7.26979 10.071 7.53886 10.2523 7.84035 10.3569C8.14185 10.4615 8.46539 10.4858 8.77913 10.4274C9.09287 10.3691 9.38601 10.23 9.62969 10.0239L10.8796 10.8569C10.4501 11.3245 9.89514 11.6586 9.28097 11.8193C8.66681 11.9801 8.01935 11.9608 7.41586 11.7637C6.81237 11.5666 6.27833 11.2 5.87747 10.7077C5.47662 10.2154 5.22587 9.61817 5.15516 8.98726H4.39935V7.51683H5.15442C5.22489 6.8856 5.47557 6.28799 5.87652 5.79539C6.27747 5.30279 6.81174 4.93601 7.41552 4.73886C8.0193 4.54171 8.66707 4.52252 9.28146 4.68359C9.89584 4.84465 10.4509 5.17916 10.8803 5.64717L9.62969 6.48017C9.38601 6.2741 9.09287 6.13503 8.77913 6.07664C8.46539 6.01825 8.14185 6.04255 7.84035 6.14716C7.53886 6.25176 7.26979 6.43306 7.05963 6.67322C6.84947 6.91338 6.70545 7.20412 6.64176 7.51683Z" fill="#3F3F46"/>
</svg>
