<svg width="14" height="14" viewBox="0 0 14 14" fill="none" xmlns="http://www.w3.org/2000/svg">
<path d="M12.0853 8.29227C12.9135 7.4641 13.3787 6.34087 13.3787 5.16966C13.3787 3.99846 12.9135 2.87522 12.0853 2.04706C11.2571 1.21889 10.1339 0.753632 8.96269 0.753632C7.79149 0.753632 6.66825 1.21889 5.84009 2.04706" stroke="#3F3F46" stroke-width="0.981325" stroke-miterlimit="10"/>
<path d="M10.0034 6.21066C10.2757 5.93385 10.4277 5.56064 10.4261 5.17232C10.4245 4.78401 10.2695 4.41205 9.99495 4.13746C9.72036 3.86288 9.3484 3.70792 8.96009 3.70634C8.57177 3.70476 8.19856 3.85668 7.92175 4.12902" stroke="#3F3F46" stroke-width="0.981325" stroke-miterlimit="10"/>
<path d="M5.03724 13.5111V12.0391V13.5111ZM1.91479 12.2176L2.9556 11.1768L1.91479 12.2176ZM0.621277 9.09512H2.09326H0.621277Z" fill="#3F3F46"/>
<path d="M5.03724 13.5111V12.0391M1.91479 12.2176L2.9556 11.1768M0.621277 9.09512H2.09326" stroke="#3F3F46" stroke-width="0.981325" stroke-miterlimit="10" stroke-linecap="round"/>
<path d="M7.92175 4.129L4.45215 7.59829C4.26812 7.78228 4.01855 7.88564 3.75832 7.88564C3.4981 7.88564 3.24853 7.78228 3.0645 7.59829L2.36929 6.90462C2.27814 6.81349 2.20584 6.7053 2.15651 6.58622C2.10718 6.46715 2.08179 6.33952 2.08179 6.21064C2.08179 6.08175 2.10718 5.95412 2.15651 5.83505C2.20584 5.71597 2.27814 5.60778 2.36929 5.51665L5.84011 2.04706M12.0853 8.29227L8.61573 11.7631C8.5246 11.8542 8.41641 11.9265 8.29734 11.9759C8.17826 12.0252 8.05064 12.0506 7.92175 12.0506C7.79286 12.0506 7.66523 12.0252 7.54616 11.9759C7.42709 11.9265 7.31889 11.8542 7.22777 11.7631L6.53409 11.0691C6.44295 10.978 6.37064 10.8698 6.32131 10.7507C6.27198 10.6316 6.24659 10.504 6.24659 10.3751C6.24659 10.2462 6.27198 10.1186 6.32131 9.99954C6.37064 9.88047 6.44295 9.77228 6.53409 9.68115L10.0034 6.21064M3.43035 4.49454L5.51198 6.57649M7.59362 8.65812L9.67556 10.7398" stroke="#3F3F46" stroke-width="0.981325" stroke-linejoin="round"/>
</svg>
